<?xml version="1.0" encoding="UTF-8"?>
<svg id="Capa_2" data-name="Capa 2" xmlns="http://www.w3.org/2000/svg" viewBox="0 0 426.89 129.54">
  <defs>
    <style>
      .cls-1 {
        fill: #fff;
      }
    </style>
  </defs>
  <g id="Capa_1-2" data-name="Capa 1">
    <g>
      <g>
        <path class="cls-1" d="M190.98,1.52l9.3,72.08h1.52L211.09,1.52h27.58v126.49h-21.18l.91-62.94h-1.52l-9.14,62.94h-13.41l-9.14-62.94h-1.52l.91,62.94h-21.18V1.52h27.58Z"/>
        <path class="cls-1" d="M302.07,34.29v2.74c0,14.48-5.49,24.08-15.54,30.02v1.52c9.45,5.18,11.89,12.04,12.19,25.91l.3,12.19c.15,10.97.91,15.85,3.05,19.81v1.52h-23.01c-1.83-4.57-2.59-10.97-2.74-19.35l-.61-21.64c-.15-6.25-1.68-10.06-6.71-10.06v51.05h-24.23V1.52h24.08c19.81,0,33.22,12.19,33.22,32.76ZM270.53,61.11c4.11,0,6.71-3.2,6.71-11.73v-20.42c0-8.38-2.59-11.58-6.71-11.58h-1.52v43.74h1.52Z"/>
        <path class="cls-1" d="M336.52,0c19.05,0,28.65,14.93,28.65,39.01v9.75h-23.16c-1.07-4.57-1.22-9.91-1.22-15.24v-11.43c0-3.5-1.37-5.79-4.11-5.79s-4.27,2.29-4.27,5.94v85.04c0,3.66,1.52,5.94,4.27,5.94s4.11-2.29,4.11-5.79v-12.19c0-5.33.15-10.67,1.22-15.24h23.16v10.51c0,24.08-9.6,39.01-28.65,39.01s-31.85-15.39-31.85-49.83v-29.87c0-34.44,12.34-49.83,31.85-49.83Z"/>
        <path class="cls-1" d="M394.27,1.52v53.03h8.23V1.52h24.38v126.49h-24.38v-54.25h-8.23v54.25h-24.38V1.52h24.38Z"/>
      </g>
      <rect class="cls-1" y="1.52" width="128.01" height="128.01"/>
    </g>
  </g>
</svg>